<svg height="100%" width="100%" id="bg-svg" viewBox="0 0 1440 500" xmlns="http://www.w3.org/2000/svg" class="transition duration-300 ease-in-out delay-150"><defs><linearGradient id="gradient"><stop offset="5%" stop-color="#002bdc88"></stop><stop offset="95%" stop-color="#32ded488"></stop></linearGradient></defs><path d="M 0,500 C 0,500 0,166 0,166 C 102.14285714285714,175.07142857142856 204.28571428571428,184.14285714285714 319,175 C 433.7142857142857,165.85714285714286 560.9999999999999,138.5 675,129 C 789.0000000000001,119.5 889.7142857142858,127.85714285714286 1015,137 C 1140.2857142857142,146.14285714285714 1290.142857142857,156.07142857142856 1440,166 C 1440,166 1440,500 1440,500 Z" stroke="none" stroke-width="0" fill="url(#gradient)" class="transition-all duration-300 ease-in-out delay-150"></path><defs><linearGradient id="gradient"><stop offset="5%" stop-color="#002bdcff"></stop><stop offset="95%" stop-color="#32ded4ff"></stop></linearGradient></defs><path d="M 0,500 C 0,500 0,333 0,333 C 122,313.3928571428571 244,293.7857142857143 358,282 C 472,270.2142857142857 578.0000000000001,266.24999999999994 715,291 C 851.9999999999999,315.75000000000006 1020,369.2142857142857 1146,381 C 1272,392.7857142857143 1356,362.8928571428571 1440,333 C 1440,333 1440,500 1440,500 Z" stroke="none" stroke-width="0" fill="url(#gradient)" class="transition-all duration-300 ease-in-out delay-150"></path></svg>